<svg width="169" height="37" viewBox="0 0 169 37" fill="none" xmlns="http://www.w3.org/2000/svg">
<path d="M29.0371 10.4107L18.885 4.23793C18.5703 4.05403 18.1846 4.05403 17.8698 4.23793L7.71778 10.4107C7.4018 10.5907 7.20385 10.9276 7.20001 11.2954V27.7561C7.20001 28.0969 7.36625 28.4171 7.64544 28.6087C7.92335 28.8003 8.2774 28.8388 8.59086 28.7128L11.2609 27.6326V31.8712C11.2621 32.2274 11.4449 32.5579 11.7456 32.7444C12.0451 32.9309 12.4182 32.9476 12.7329 32.7868L18.3674 29.9371L24.0019 32.7868C24.1427 32.8601 24.3001 32.8987 24.4587 32.9C24.649 32.9 24.8356 32.8473 24.9967 32.7457C25.2937 32.5579 25.4752 32.2262 25.4739 31.8712V27.6326L28.1439 28.7128C28.2632 28.7617 28.3914 28.7861 28.5195 28.7848C28.7885 28.7848 29.0474 28.6768 29.2378 28.4839C29.4281 28.291 29.5347 28.0287 29.5347 27.7561V11.2954C29.5347 10.9328 29.3454 10.5958 29.0371 10.4107ZM27.5041 26.2333L18.7428 22.684C18.5017 22.5863 18.2327 22.5863 17.9916 22.684L13.9307 24.3301L14.682 26.2437L18.3673 24.7519L23.4433 26.8095V30.2044L18.824 27.869C18.5372 27.7224 18.1971 27.7224 17.9103 27.869L13.2911 30.2044V13.9083L18.3671 10.472L23.4431 13.9083V23.6405H25.4735V13.3526C25.4723 13.008 25.301 12.6878 25.0167 12.4987L18.9255 8.38354C18.5867 8.15721 18.1476 8.15721 17.8088 8.38354L11.7175 12.4987C11.4333 12.6877 11.262 13.008 11.2607 13.3526V25.41L9.23029 26.2331V11.8814L18.3671 6.32589L27.504 11.8814L27.5041 26.2333ZM20.3977 16.4392H16.3369V14.3816H20.3977V16.4392ZM14.3064 18.4968H22.4281V20.5544H14.3064V18.4968Z" fill="#23E085"/>
<path d="M54.0092 13.6797C53.9098 12.7493 53.4908 12.0249 52.7521 11.5064C52.0206 10.9879 51.0689 10.7287 49.897 10.7287C49.0732 10.7287 48.3665 10.853 47.777 11.1016C47.1875 11.3501 46.7365 11.6875 46.424 12.1136C46.1115 12.5398 45.9517 13.0263 45.9446 13.5732C45.9446 14.0277 46.0476 14.4219 46.2536 14.7557C46.4666 15.0895 46.7543 15.3736 47.1165 15.608C47.4787 15.8352 47.88 16.027 48.3203 16.1832C48.7607 16.3395 49.2045 16.4709 49.652 16.5774L51.6974 17.0888C52.5213 17.2805 53.3132 17.5398 54.0732 17.8665C54.8402 18.1932 55.5256 18.6051 56.1293 19.1023C56.7401 19.5994 57.223 20.1996 57.5781 20.9027C57.9332 21.6058 58.1108 22.4297 58.1108 23.3743C58.1108 24.6527 57.7841 25.7784 57.1307 26.7514C56.4773 27.7173 55.5327 28.4737 54.2969 29.0206C53.0682 29.5604 51.5803 29.8303 49.8331 29.8303C48.1357 29.8303 46.6619 29.5675 45.4119 29.0419C44.169 28.5163 43.196 27.7493 42.4929 26.7408C41.7969 25.7322 41.4205 24.5036 41.3636 23.0547H45.2521C45.3089 23.8146 45.5433 24.4467 45.9553 24.951C46.3672 25.4553 46.9034 25.8317 47.5639 26.0803C48.2315 26.3288 48.9773 26.4531 49.8011 26.4531C50.6605 26.4531 51.4134 26.3253 52.0597 26.0696C52.7131 25.8068 53.2244 25.4446 53.5938 24.983C53.9631 24.5142 54.1513 23.9673 54.1584 23.3423C54.1513 22.7741 53.9844 22.3054 53.6577 21.9361C53.331 21.5597 52.8729 21.2472 52.2834 20.9986C51.701 20.7429 51.0192 20.5156 50.2379 20.3168L47.7557 19.6776C45.9588 19.2159 44.5384 18.5163 43.4943 17.5788C42.4574 16.6342 41.9389 15.3807 41.9389 13.8182C41.9389 12.5327 42.2869 11.407 42.983 10.4411C43.6861 9.47514 44.6413 8.72585 45.8487 8.19318C47.0561 7.65341 48.4233 7.38352 49.9503 7.38352C51.4986 7.38352 52.8551 7.65341 54.0199 8.19318C55.1918 8.72585 56.1115 9.46804 56.7791 10.4197C57.4467 11.3643 57.7912 12.451 57.8125 13.6797H54.0092ZM68.7083 29.8196C67.0676 29.8196 65.6507 29.4787 64.4576 28.7969C63.2715 28.108 62.3588 27.1349 61.7196 25.8778C61.0804 24.6136 60.7608 23.1257 60.7608 21.4141C60.7608 19.7308 61.0804 18.2536 61.7196 16.9822C62.3659 15.7038 63.2679 14.7095 64.4256 13.9993C65.5833 13.282 66.9434 12.9233 68.5059 12.9233C69.5144 12.9233 70.4661 13.0866 71.361 13.4134C72.263 13.733 73.0584 14.2301 73.7473 14.9048C74.4434 15.5795 74.9902 16.4389 75.388 17.483C75.7857 18.5199 75.9846 19.7557 75.9846 21.1903V22.3729H62.5719V19.7734H72.2878C72.2807 19.0348 72.1209 18.3778 71.8084 17.8026C71.4959 17.2202 71.0591 16.7621 70.498 16.4283C69.9441 16.0945 69.2978 15.9276 68.5591 15.9276C67.7708 15.9276 67.0783 16.1193 66.4817 16.5028C65.8851 16.8793 65.4199 17.3764 65.0861 17.9943C64.7594 18.6051 64.5925 19.2763 64.5854 20.0078V22.277C64.5854 23.2287 64.7594 24.0455 65.1074 24.7273C65.4554 25.402 65.9419 25.9205 66.5669 26.2827C67.1919 26.6378 67.9235 26.8153 68.7615 26.8153C69.3226 26.8153 69.8304 26.7372 70.285 26.581C70.7395 26.4176 71.1337 26.1797 71.4675 25.8672C71.8013 25.5547 72.0534 25.1676 72.2239 24.706L75.8248 25.1108C75.5975 26.0625 75.1642 26.8935 74.525 27.6037C73.8929 28.3068 73.0833 28.8537 72.0961 29.2443C71.1088 29.6278 69.9796 29.8196 68.7083 29.8196ZM83.1037 7.68182V29.5H79.2472V7.68182H83.1037ZM90.926 7.68182V29.5H87.0694V7.68182H90.926ZM121.981 19.9119V29.5H118.124V13.1364H121.81V15.9169H122.002C122.378 15.0007 122.979 14.2727 123.802 13.733C124.633 13.1932 125.66 12.9233 126.881 12.9233C128.01 12.9233 128.994 13.1648 129.832 13.6477C130.677 14.1307 131.331 14.8303 131.792 15.7464C132.261 16.6626 132.492 17.7741 132.485 19.081V29.5H128.628V19.6776C128.628 18.5838 128.344 17.728 127.776 17.1101C127.215 16.4922 126.437 16.1832 125.443 16.1832C124.768 16.1832 124.168 16.3324 123.643 16.6307C123.124 16.9219 122.716 17.3445 122.417 17.8984C122.126 18.4524 121.981 19.1236 121.981 19.9119ZM143.65 29.8196C142.009 29.8196 140.592 29.4787 139.399 28.7969C138.213 28.108 137.3 27.1349 136.661 25.8778C136.022 24.6136 135.702 23.1257 135.702 21.4141C135.702 19.7308 136.022 18.2536 136.661 16.9822C137.307 15.7038 138.209 14.7095 139.367 13.9993C140.525 13.282 141.885 12.9233 143.447 12.9233C144.456 12.9233 145.407 13.0866 146.302 13.4134C147.204 13.733 148 14.2301 148.689 14.9048C149.385 15.5795 149.932 16.4389 150.329 17.483C150.727 18.5199 150.926 19.7557 150.926 21.1903V22.3729H137.513V19.7734H147.229C147.222 19.0348 147.062 18.3778 146.75 17.8026C146.437 17.2202 146.001 16.7621 145.439 16.4283C144.885 16.0945 144.239 15.9276 143.501 15.9276C142.712 15.9276 142.02 16.1193 141.423 16.5028C140.827 16.8793 140.361 17.3764 140.028 17.9943C139.701 18.6051 139.534 19.2763 139.527 20.0078V22.277C139.527 23.2287 139.701 24.0455 140.049 24.7273C140.397 25.402 140.883 25.9205 141.508 26.2827C142.133 26.6378 142.865 26.8153 143.703 26.8153C144.264 26.8153 144.772 26.7372 145.226 26.581C145.681 26.4176 146.075 26.1797 146.409 25.8672C146.743 25.5547 146.995 25.1676 147.165 24.706L150.766 25.1108C150.539 26.0625 150.106 26.8935 149.466 27.6037C148.834 28.3068 148.025 28.8537 147.037 29.2443C146.05 29.6278 144.921 29.8196 143.65 29.8196ZM156.99 13.1364L160.293 19.1768L163.649 13.1364H167.729L162.797 21.3182L167.814 29.5H163.755L160.293 23.6087L156.863 29.5H152.772L157.757 21.3182L152.9 13.1364H156.99Z" fill="white"/>
<path d="M114.558 18.5909C114.558 20.9418 114.118 22.9553 113.237 24.6314C112.363 26.3004 111.17 27.5788 109.657 28.4666C108.152 29.3544 106.444 29.7983 104.533 29.7983C102.623 29.7983 100.911 29.3544 99.3981 28.4666C97.8924 27.5717 96.6992 26.2898 95.8185 24.6207C94.945 22.9446 94.5082 20.9347 94.5082 18.5909C94.5082 16.2401 94.945 14.2301 95.8185 12.5611C96.6992 10.8849 97.8924 9.60298 99.3981 8.7152C100.911 7.82741 102.623 7.38352 104.533 7.38352C106.444 7.38352 108.152 7.82741 109.657 8.7152C111.17 9.60298 112.363 10.8849 113.237 12.5611C114.118 14.2301 114.558 16.2401 114.558 18.5909ZM110.584 18.5909C110.584 16.9361 110.325 15.5405 109.806 14.4041C109.295 13.2607 108.585 12.3977 107.676 11.8153C106.767 11.2259 105.719 10.9311 104.533 10.9311C103.347 10.9311 102.299 11.2259 101.39 11.8153C100.481 12.3977 99.7674 13.2607 99.2489 14.4041C98.7376 15.5405 98.4819 16.9361 98.4819 18.5909C98.4819 20.2457 98.7376 21.6449 99.2489 22.7884C99.7674 23.9247 100.481 24.7876 101.39 25.3771C102.299 25.9595 103.347 26.2507 104.533 26.2507C105.719 26.2507 106.767 25.9595 107.676 25.3771C108.585 24.7876 109.295 23.9247 109.806 22.7884C110.325 21.6449 110.584 20.2457 110.584 18.5909Z" fill="#23E085"/>
</svg>
