<svg xmlns="http://www.w3.org/2000/svg" version="1.1" xmlns:xlink="http://www.w3.org/1999/xlink" xmlns:svgjs="http://svgjs.dev/svgjs" width="91" height="116"><svg width="91" height="116" viewBox="0 0 91 116" fill="none" xmlns="http://www.w3.org/2000/svg">
<path d="M46.6972 0C50.1046 1.34939 53.0762 3.19914 56.1269 5.19922C57.5321 6.10067 58.9384 7.0003 60.3457 7.89844C61.1165 8.39134 61.8874 8.88425 62.6816 9.39209C68.6329 13.1421 74.6798 16.7402 80.7085 20.364C81.6587 20.9387 82.6089 21.5134 83.5879 22.1055C84.4391 22.6179 85.2904 23.1303 86.1674 23.6582C88.2519 25.0117 88.2519 25.0117 90.2519 27.0117C90.5059 29.8962 90.5059 29.8962 90.5107 33.6328C90.5142 34.3126 90.5177 34.9925 90.5213 35.6929C90.5301 37.9451 90.5243 40.197 90.5175 42.4492C90.5189 44.011 90.5208 45.5728 90.5233 47.1345C90.5263 50.4097 90.522 53.6848 90.5127 56.96C90.5013 61.1636 90.5078 65.3669 90.5198 69.5705C90.527 72.796 90.5247 76.0215 90.5195 79.2471C90.5182 80.7973 90.5199 82.3475 90.5245 83.8977C90.5296 86.0621 90.5219 88.2262 90.5107 90.3906C90.5091 91.6237 90.5075 92.8568 90.5059 94.1272C90.2519 97.0117 90.2519 97.0117 88.2519 99.0117C82.9542 98.7001 79.0112 97.1263 74.2519 95.0117C74.2635 96.2879 74.2751 97.5641 74.2871 98.8789C74.2964 100.548 74.3055 102.217 74.3144 103.887C74.3228 104.728 74.3312 105.57 74.3398 106.438C74.343 107.243 74.3463 108.049 74.3496 108.879C74.3548 109.623 74.36 110.366 74.3654 111.132C74.2519 113.012 74.2519 113.012 73.2519 115.012C66.0922 115.967 60.5463 111.79 54.5078 108.479C53.219 107.797 53.219 107.797 51.9043 107.102C51.1307 106.677 50.3572 106.253 49.5603 105.816C45.9853 104.57 43.5034 105.458 40.1272 106.951C39.4374 107.323 38.7477 107.695 38.0371 108.078C37.2681 108.481 36.4992 108.884 35.707 109.299C34.1134 110.148 32.5222 111.003 30.9336 111.861C26.5232 114.161 23.3683 115.595 18.2519 115.012C17.1036 112.715 17.1363 111.429 17.1543 108.879C17.1575 108.073 17.1607 107.268 17.164 106.438C17.1724 105.596 17.1808 104.754 17.1894 103.887C17.1939 103.037 17.1984 102.188 17.2031 101.312C17.2149 99.2122 17.2328 97.112 17.2519 95.0117C16.2561 95.4622 16.2561 95.4622 15.2402 95.9219C14.3572 96.3021 13.4742 96.6824 12.5644 97.0742C11.6943 97.4571 10.8242 97.8399 9.9277 98.2344C6.90929 99.1113 5.22976 98.9244 2.25191 98.0117C0.393178 96.153 1.0367 93.0726 0.979697 90.5835C0.963488 89.9118 0.947279 89.2402 0.930579 88.5482C0.790105 82.3369 0.712201 76.1242 0.65166 69.9117C0.610715 65.7373 0.55045 61.5653 0.442588 57.3921C0.338659 53.3577 0.284233 49.3253 0.264205 45.2897C0.248298 43.7545 0.21512 42.2194 0.164046 40.685C-0.214985 28.7207 -0.214983 28.7207 3.31237 24.6112C5.87838 22.781 8.41312 21.3729 11.2519 20.0117C12.4328 19.2914 13.6071 18.56 14.7705 17.8118C15.8111 17.2036 16.8517 16.5954 17.9238 15.9688C18.4947 15.633 19.0656 15.2973 19.6538 14.9513C21.4343 13.905 23.2178 12.8643 25.0019 11.8242C26.7998 10.7726 28.5969 9.71975 30.3928 8.66496C32.0107 7.71528 33.6308 6.76926 35.2509 5.82349C37.3701 4.5441 39.4447 3.18953 41.4829 1.78467C44.2519 0.0117188 44.2519 0.0117188 46.6972 0Z" fill="#22DB82"></path>
<path d="M45.252 9.01172C50.368 11.8667 50.368 11.8667 52.5636 13.1943C56.6284 15.6302 60.6895 17.6554 65.0567 19.5C80.5295 26.5932 80.5295 26.5932 83.4685 34.1323C85.0107 42.3444 84.4732 50.5729 83.8313 58.8596C83.5933 62.2625 83.4904 65.6693 83.3751 69.0781C83.123 75.733 82.7397 82.3702 82.252 89.0117C73.1075 85.6307 64.0201 82.2186 55.129 78.207C49.3593 75.7288 44.8708 75.1997 38.7247 77.1055C37.0366 77.8016 37.0366 77.8016 35.3145 78.5117C33.5994 79.2078 33.5994 79.2078 31.8497 79.918C30.9924 80.2789 30.1352 80.6398 29.252 81.0117C29.582 83.6517 29.912 86.2917 30.252 89.0117C31.2046 88.567 32.1572 88.1223 33.1387 87.6641C34.4053 87.0917 35.6723 86.5202 36.9395 85.9492C37.5653 85.6547 38.1912 85.3601 38.836 85.0566C43.8338 82.8325 46.2507 82.8732 51.2298 84.762C53.5233 85.666 55.7943 86.6132 58.0645 87.5742C58.8528 87.9036 59.641 88.2329 60.4532 88.5723C62.3878 89.3813 64.3202 90.196 66.252 91.0117C66.252 95.6317 66.252 100.252 66.252 105.012C64.9501 104.35 63.6481 103.689 62.3067 103.008C60.5805 102.154 58.854 101.301 57.127 100.449C56.2711 100.012 55.4151 99.5739 54.5333 99.123C53.6954 98.7138 52.8575 98.3045 51.9942 97.8828C51.2296 97.5005 50.465 97.1182 49.6773 96.7244C43.5135 94.9132 38.2078 98.2835 32.877 101.074C32.141 101.451 31.4049 101.828 30.6465 102.217C28.8446 103.141 27.0478 104.075 25.252 105.012C24.7857 96.6323 24.4319 88.2585 24.2158 79.8693C24.1119 75.9717 23.9717 72.0831 23.7432 68.1907C22.3012 42.9934 22.3012 42.9934 27.2796 36.2758C32.5527 31.4961 38.5912 28.4206 45.252 26.0117C45.8261 26.3375 46.4002 26.6633 46.9917 26.9989C50.5328 28.9904 54.0021 30.9026 57.7295 32.5293C61.3629 34.3395 63.64 35.8764 66.252 39.0117C68.2193 45.5896 67.376 52.752 67.002 59.5117C66.9418 61.4022 66.887 63.2928 66.8379 65.1836C66.7063 69.7975 66.4996 74.4026 66.252 79.0117C68.892 79.0117 71.532 79.0117 74.252 79.0117C77.4937 54.1346 77.4937 54.1346 70.8316 31.2593C64.5948 24.6175 54.6969 18.769 45.659 17.707C42.7229 18.0787 41.2251 19.007 38.8184 20.7148C38.0044 21.2833 37.1903 21.8518 36.3516 22.4375C35.5144 23.0395 34.6771 23.6415 33.8145 24.2617C32.1492 25.4337 30.4839 26.6056 28.8184 27.7773C28.0857 28.301 27.3529 28.8247 26.598 29.3643C24.252 31.0117 24.252 31.0117 21.0169 32.4922C17.8304 35.3959 17.7952 36.0269 17.4791 40.1475C17.4381 42.2841 17.4296 44.4216 17.4473 46.5586C17.4336 47.6849 17.4199 48.8113 17.4058 49.9717C17.3684 53.5688 17.3722 57.1645 17.377 60.7617C17.3589 63.2005 17.3381 65.6393 17.3145 68.0781C17.2626 74.0561 17.2445 80.0335 17.252 86.0117C14.612 87.0017 11.972 87.9917 9.25201 89.0117C4.52865 36.6802 4.52865 36.6802 11.8712 26.6768C17.7911 20.4635 25.9138 17.5213 33.9669 15.0835C38.2918 13.6725 41.548 11.6167 45.252 9.01172Z" fill="#171A18"></path>
<path d="M29 58C39.89 58 50.78 58 62 58C62 60.64 62 63.28 62 66C51.11 66 40.22 66 29 66C29 63.36 29 60.72 29 58Z" fill="#22DC83"></path>
<path d="M37 41C42.61 41 48.22 41 54 41C54 43.97 54 46.94 54 50C48.39 50 42.78 50 37 50C37 47.03 37 44.06 37 41Z" fill="#21C677"></path>
</svg><style>@media (prefers-color-scheme: light) { :root { filter: none; } }
@media (prefers-color-scheme: dark) { :root { filter: none; } }
</style></svg>