<svg width="70" height="84" viewBox="0 0 70 84" fill="none" xmlns="http://www.w3.org/2000/svg">
<path d="M51.8751 41.0625C59.7936 45.0782 64.8276 50.7278 68.0001 59C69.4854 64.0682 70.098 69.2645 68.0938 74.2578C65.4012 78.9353 63.1058 80.9517 58.0001 83C54.5438 83.4522 51.1154 83.468 47.6329 83.4688C46.1425 83.4802 46.1425 83.4802 44.6221 83.4918C42.5259 83.5026 40.4297 83.5055 38.3336 83.501C35.142 83.5 31.9529 83.5416 28.7618 83.5859C26.7188 83.5912 24.6758 83.5938 22.6329 83.5938C21.6868 83.6102 20.7407 83.6266 19.766 83.6434C13.4006 83.5777 8.83315 82.2945 4.00006 78C0.592548 72.3563 0.29734 67.171 1.36334 60.8438C3.34769 53.1764 8.68644 46.8311 15.2618 42.5156C25.7873 37.1459 40.86 36.7828 51.8751 41.0625ZM9.93756 54.6875C7.55086 58.768 6.79102 61.7153 6.62506 66.375C6.57608 67.3109 6.52709 68.2467 6.47662 69.2109C7.24039 73.2806 8.70942 74.4999 12.0001 77C15.4579 77.7406 18.8493 77.7011 22.3751 77.6641C23.3771 77.6689 24.3792 77.6736 25.4117 77.6786C27.5264 77.682 29.6413 77.6728 31.7559 77.6519C34.9895 77.6251 38.2197 77.6516 41.4532 77.6836C43.5105 77.6803 45.5678 77.6739 47.6251 77.6641C49.0721 77.6793 49.0721 77.6793 50.5484 77.6947C55.191 77.6138 57.3247 77.5153 61.1114 74.6262C64.258 70.2508 63.6931 66.1709 63.0001 61C60.5991 54.1762 55.4596 49.7792 49.4236 46.0759C44.8053 44.0257 40.1006 44.2411 35.1251 44.3125C33.5879 44.2709 33.5879 44.2709 32.0196 44.2285C22.9549 44.2573 15.4582 47.2548 9.93756 54.6875Z" fill="#F0F0F0"/>
<path d="M42.1875 2.06248C46.4854 5.02323 50.08 8.10716 51.7031 13.2109C52.5399 18.5405 51.7356 22.2582 49 27C45.7936 30.6997 42.8585 33.5379 37.9219 34.3359C32.1044 34.4405 27.7696 33.4238 23 30C19.2199 26.2199 18.721 23.1042 18.5625 17.9375C18.5693 12.6328 19.7631 9.25394 23.5352 5.45311C29.6758 0.615957 34.6122 -0.462613 42.1875 2.06248Z" fill="#F4F4F4"/>
</svg>
